Coordinates
version=1
nRows=32
nColumns=12
inDegrees=yes

Units are S.I. units (second, meters, Newtons, ...)
Angles are in degrees

endheader
time	SC_y	SC_z	SC_x	AC_y	AC_z	AC_x	GH_y	GH_z	GH_yy	EL_x	PS_y
       0.0              -35.15        -0.8804          48.25          43.52          4.608          19.47          164.9          53.55          144.5          31.07          29.71
   0.04649              -35.15        -0.8785          48.25          43.52          4.608          19.47          164.9          53.55          144.5          31.06          29.73
   0.09298              -35.16        -0.8766          48.26          43.52          4.609          19.47          164.9          53.54          144.4          31.06          29.74
    0.1395              -35.16        -0.8745          48.26          43.52          4.609          19.47          164.9          53.53          144.4          31.06          29.76
     0.186              -35.17        -0.8722          48.27          43.53           4.61          19.46          164.9          53.52          144.4          31.06          29.77
    0.2325              -35.17        -0.8699          48.27          43.53           4.61          19.46          164.9          53.52          144.3          31.06          29.79
    0.2789              -35.17        -0.8673          48.28          43.53          4.611          19.46          164.9          53.51          144.3          31.06          29.81
    0.3254              -35.18        -0.8646          48.28          43.53          4.612          19.46          164.9           53.5          144.2          31.06          29.83
    0.3719              -35.19        -0.8617          48.29          43.53          4.613          19.45          164.9          53.49          144.2          31.06          29.86
    0.4184              -35.19        -0.8586          48.29          43.53          4.613          19.45          164.9          53.48          144.1          31.05          29.88
    0.4649               -35.2        -0.8553           48.3          43.54          4.614          19.45          164.9          53.47          144.1          31.05           29.9
    0.5114               -35.2        -0.8517          48.31          43.54          4.615          19.44          164.8          53.45          144.0          31.05          29.93
    0.5579              -35.21        -0.8478          48.31          43.54          4.616          19.44          164.8          53.44          143.9          31.05          29.96
    0.6044              -35.22        -0.8437          48.32          43.54          4.617          19.43          164.8          53.43          143.9          31.04          29.99
    0.6509              -35.23        -0.8391          48.33          43.54          4.619          19.43          164.8          53.41          143.8          31.04          30.03
    0.6974              -35.24        -0.8342          48.34          43.55           4.62          19.42          164.8          53.39          143.7          31.04          30.07
    0.7438              -35.25        -0.8289          48.35          43.55          4.621          19.41          164.8          53.38          143.6          31.04          30.11
    0.7903              -35.26        -0.8231          48.36          43.55          4.623          19.41          164.8          53.36          143.5          31.03          30.15
    0.8368              -35.27        -0.8167          48.37          43.56          4.624           19.4          164.7          53.33          143.4          31.03           30.2
    0.8833              -35.28        -0.8098          48.39          43.56          4.626          19.39          164.7          53.31          143.3          31.03          30.26
    0.9298              -35.29        -0.8022           48.4          43.56          4.628          19.38          164.7          53.28          143.1          31.02          30.32
    0.9763              -35.31        -0.7938          48.42          43.57          4.631          19.37          164.7          53.26          143.0          31.02          30.38
     1.023              -35.33        -0.7845          48.44          43.57          4.633          19.36          164.6          53.22          142.8          31.01          30.45
     1.069              -35.35        -0.7742          48.46          43.58          4.636          19.35          164.6          53.19          142.6           31.0          30.53
     1.116              -35.37        -0.7628          48.48          43.59          4.639          19.34          164.6          53.15          142.4           31.0          30.62
     1.162              -35.39        -0.7501           48.5          43.59          4.642          19.32          164.5          53.11          142.2          30.99          30.72
     1.209              -35.42        -0.7358          48.53           43.6          4.646          19.31          164.5          53.06          141.9          30.98          30.83
     1.255              -35.45        -0.7198          48.56          43.61           4.65          19.29          164.4           53.0          141.7          30.97          30.95
     1.302              -35.48        -0.7016           48.6          43.62          4.655          19.27          164.3          52.94          141.3          30.96          31.09
     1.348              -35.52         -0.681          48.64          43.63          4.661          19.24          164.3          52.87          141.0          30.95          31.25
     1.395              -35.56        -0.6575          48.68          43.64          4.667          19.22          164.2          52.79          140.5          30.94          31.43
     1.441              -35.61        -0.6305          48.74          43.66          4.674          19.19          164.1           52.7          140.1          30.92          31.64
